<svg viewBox="0 0 700 326" xmlns="http://www.w3.org/2000/svg"><rect width="700" height="326" fill="#FFFFFF"/><rect x="24" y="40" width="300" height="270" rx="10" fill="#FDECEC" stroke="#E5484D" stroke-width="1.4"/><text x="40" y="68" font-family="'JetBrains Mono',ui-monospace,monospace" font-size="11" font-weight="700" fill="#E5484D" text-anchor="start" letter-spacing="1">USUAL · SHARED POOL</text><rect x="44" y="90" width="84" height="26" rx="6" fill="#FFFFFF" stroke="#D6D2CA" stroke-width="1"/><text x="86" y="107" font-family="'JetBrains Mono',ui-monospace,monospace" font-size="11" font-weight="600" fill="#52525B" text-anchor="middle" letter-spacing="0">worker 1</text><rect x="44" y="124" width="84" height="26" rx="6" fill="#FFFFFF" stroke="#D6D2CA" stroke-width="1"/><text x="86" y="141" font-family="'JetBrains Mono',ui-monospace,monospace" font-size="11" font-weight="600" fill="#52525B" text-anchor="middle" letter-spacing="0">worker 2</text><rect x="44" y="158" width="84" height="26" rx="6" fill="#FFFFFF" stroke="#D6D2CA" stroke-width="1"/><text x="86" y="175" font-family="'JetBrains Mono',ui-monospace,monospace" font-size="11" font-weight="600" fill="#52525B" text-anchor="middle" letter-spacing="0">worker 3</text><rect x="220" y="104" width="84" height="30" rx="6" fill="#FFFFFF" stroke="#D6D2CA" stroke-width="1"/><text x="262" y="123" font-family="'JetBrains Mono',ui-monospace,monospace" font-size="11" font-weight="600" fill="#52525B" text-anchor="middle" letter-spacing="0">database</text><rect x="220" y="148" width="84" height="30" rx="6" fill="#FFFFFF" stroke="#D6D2CA" stroke-width="1"/><text x="262" y="167" font-family="'JetBrains Mono',ui-monospace,monospace" font-size="11" font-weight="600" fill="#52525B" text-anchor="middle" letter-spacing="0">database</text><line x1="128" y1="103" x2="220" y2="119" stroke="#E5484D" stroke-width="1" opacity="0.5"/><line x1="128" y1="103" x2="220" y2="163" stroke="#E5484D" stroke-width="1" opacity="0.5"/><line x1="128" y1="137" x2="220" y2="119" stroke="#E5484D" stroke-width="1" opacity="0.5"/><line x1="128" y1="137" x2="220" y2="163" stroke="#E5484D" stroke-width="1" opacity="0.5"/><line x1="128" y1="171" x2="220" y2="119" stroke="#E5484D" stroke-width="1" opacity="0.5"/><line x1="128" y1="171" x2="220" y2="163" stroke="#E5484D" stroke-width="1" opacity="0.5"/><rect x="44" y="262" width="260" height="34" rx="7" fill="#FFFFFF" stroke="#E5484D" stroke-width="1.2"/><text x="174" y="284" font-family="'JetBrains Mono',ui-monospace,monospace" font-size="11" font-weight="700" fill="#E5484D" text-anchor="middle" letter-spacing="0">COORDINATION NEEDED</text><rect x="376" y="40" width="300" height="270" rx="10" fill="#EAF6EE" stroke="#2E7D46" stroke-width="1.4"/><text x="392" y="68" font-family="'JetBrains Mono',ui-monospace,monospace" font-size="11" font-weight="700" fill="#2E7D46" text-anchor="start" letter-spacing="1">CENTRIFUGE · OWNED</text><rect x="396" y="88" width="96" height="32" rx="6" fill="#FFFFFF" stroke="#D6D2CA" stroke-width="1"/><text x="444" y="108" font-family="'JetBrains Mono',ui-monospace,monospace" font-size="11" font-weight="700" fill="#1A1A1F" text-anchor="middle" letter-spacing="0">director 1</text><rect x="560" y="88" width="96" height="32" rx="6" fill="#FFFFFF" stroke="#2E7D46" stroke-width="1.2"/><text x="608" y="108" font-family="'JetBrains Mono',ui-monospace,monospace" font-size="11" font-weight="700" fill="#2E7D46" text-anchor="middle" letter-spacing="0">jobdb 1</text><line x1="492" y1="104" x2="560" y2="104" stroke="#2E7D46" stroke-width="2"/><path d="M560 104 l-9 -5 v10 z" fill="#2E7D46"/><text x="526" y="97" font-family="'JetBrains Mono',ui-monospace,monospace" font-size="9" font-weight="600" fill="#8A8A94" text-anchor="middle" letter-spacing="0">consul</text><rect x="396" y="146" width="96" height="32" rx="6" fill="#FFFFFF" stroke="#D6D2CA" stroke-width="1"/><text x="444" y="166" font-family="'JetBrains Mono',ui-monospace,monospace" font-size="11" font-weight="700" fill="#1A1A1F" text-anchor="middle" letter-spacing="0">director 2</text><rect x="560" y="146" width="96" height="32" rx="6" fill="#FFFFFF" stroke="#2E7D46" stroke-width="1.2"/><text x="608" y="166" font-family="'JetBrains Mono',ui-monospace,monospace" font-size="11" font-weight="700" fill="#2E7D46" text-anchor="middle" letter-spacing="0">jobdb 2</text><line x1="492" y1="162" x2="560" y2="162" stroke="#2E7D46" stroke-width="2"/><path d="M560 162 l-9 -5 v10 z" fill="#2E7D46"/><text x="526" y="155" font-family="'JetBrains Mono',ui-monospace,monospace" font-size="9" font-weight="600" fill="#8A8A94" text-anchor="middle" letter-spacing="0">consul</text><rect x="396" y="204" width="96" height="32" rx="6" fill="#FFFFFF" stroke="#D6D2CA" stroke-width="1"/><text x="444" y="224" font-family="'JetBrains Mono',ui-monospace,monospace" font-size="11" font-weight="700" fill="#1A1A1F" text-anchor="middle" letter-spacing="0">director 3</text><rect x="560" y="204" width="96" height="32" rx="6" fill="#FFFFFF" stroke="#2E7D46" stroke-width="1.2"/><text x="608" y="224" font-family="'JetBrains Mono',ui-monospace,monospace" font-size="11" font-weight="700" fill="#2E7D46" text-anchor="middle" letter-spacing="0">jobdb 3</text><line x1="492" y1="220" x2="560" y2="220" stroke="#2E7D46" stroke-width="2"/><path d="M560 220 l-9 -5 v10 z" fill="#2E7D46"/><text x="526" y="213" font-family="'JetBrains Mono',ui-monospace,monospace" font-size="9" font-weight="600" fill="#8A8A94" text-anchor="middle" letter-spacing="0">consul</text><rect x="396" y="262" width="260" height="34" rx="7" fill="#FFFFFF" stroke="#2E7D46" stroke-width="1.2"/><text x="526" y="284" font-family="'JetBrains Mono',ui-monospace,monospace" font-size="11" font-weight="700" fill="#2E7D46" text-anchor="middle" letter-spacing="0">ONE OWNER · NO COORDINATION</text><text x="350" y="26" font-family="'JetBrains Mono',ui-monospace,monospace" font-size="11" font-weight="700" fill="#8A8A94" text-anchor="middle" letter-spacing="0">TWO DIRECTORS ON ONE DATABASE = SPLIT-BRAIN</text></svg>