<svg viewBox="0 0 700 246" xmlns="http://www.w3.org/2000/svg" role="img" aria-label="Two load traces: with backoff only, retries return in tall synchronized waves; with jitter added, the same retries spread into a low steady stream so the server is not hit all at once"><defs><marker id="fah" markerWidth="8" markerHeight="8" refX="6" refY="3" orient="auto"><path d="M0,0 L6,3 L0,6 Z" fill="#52525B"/></marker><marker id="rah" markerWidth="9" markerHeight="9" refX="6" refY="3" orient="auto"><path d="M0,0 L6,3 L0,6 Z" fill="#DC2626"/></marker><marker id="gah" markerWidth="8" markerHeight="8" refX="6" refY="3" orient="auto"><path d="M0,0 L6,3 L0,6 Z" fill="#2E7D46"/></marker></defs>
<text x="16" y="22" font-family="'JetBrains Mono',ui-monospace,monospace" font-size="11" fill="#8A8A94" text-anchor="start" font-weight="400" letter-spacing="0.5">BACKOFF ALONE ISN'T ENOUGH, JITTER IS</text>
<text x="20" y="50" font-family="'JetBrains Mono',ui-monospace,monospace" font-size="9.5" fill="#B45309" text-anchor="start" font-weight="700">BACKOFF ONLY</text>
<rect x="20" y="58" width="660" height="54" rx="7" fill="#FCFCFD" stroke="#E4E4E7" stroke-width="1"/>
<rect x="26.0" y="68" width="7" height="44" fill="#B45309" rx="1"/><rect x="35.8" y="105" width="7" height="7" fill="#B45309" rx="1"/><rect x="45.6" y="104" width="7" height="8" fill="#B45309" rx="1"/><rect x="55.400000000000006" y="106" width="7" height="6" fill="#B45309" rx="1"/><rect x="65.2" y="105" width="7" height="7" fill="#B45309" rx="1"/><rect x="75.0" y="104" width="7" height="8" fill="#B45309" rx="1"/><rect x="84.80000000000001" y="106" width="7" height="6" fill="#B45309" rx="1"/><rect x="94.60000000000001" y="105" width="7" height="7" fill="#B45309" rx="1"/><rect x="104.4" y="104" width="7" height="8" fill="#B45309" rx="1"/><rect x="114.2" y="106" width="7" height="6" fill="#B45309" rx="1"/><rect x="124.0" y="105" width="7" height="7" fill="#B45309" rx="1"/><rect x="133.8" y="68" width="7" height="44" fill="#B45309" rx="1"/><rect x="143.60000000000002" y="106" width="7" height="6" fill="#B45309" rx="1"/><rect x="153.4" y="105" width="7" height="7" fill="#B45309" rx="1"/><rect x="163.20000000000002" y="104" width="7" height="8" fill="#B45309" rx="1"/><rect x="173.0" y="106" width="7" height="6" fill="#B45309" rx="1"/><rect x="182.8" y="105" width="7" height="7" fill="#B45309" rx="1"/><rect x="192.60000000000002" y="104" width="7" height="8" fill="#B45309" rx="1"/><rect x="202.4" y="106" width="7" height="6" fill="#B45309" rx="1"/><rect x="212.20000000000002" y="105" width="7" height="7" fill="#B45309" rx="1"/><rect x="222.0" y="104" width="7" height="8" fill="#B45309" rx="1"/><rect x="231.8" y="106" width="7" height="6" fill="#B45309" rx="1"/><rect x="241.60000000000002" y="68" width="7" height="44" fill="#B45309" rx="1"/><rect x="251.4" y="104" width="7" height="8" fill="#B45309" rx="1"/><rect x="261.20000000000005" y="106" width="7" height="6" fill="#B45309" rx="1"/><rect x="271.0" y="105" width="7" height="7" fill="#B45309" rx="1"/><rect x="280.8" y="104" width="7" height="8" fill="#B45309" rx="1"/><rect x="290.6" y="106" width="7" height="6" fill="#B45309" rx="1"/><rect x="300.40000000000003" y="105" width="7" height="7" fill="#B45309" rx="1"/><rect x="310.20000000000005" y="104" width="7" height="8" fill="#B45309" rx="1"/><rect x="320.0" y="106" width="7" height="6" fill="#B45309" rx="1"/><rect x="329.8" y="105" width="7" height="7" fill="#B45309" rx="1"/><rect x="339.6" y="104" width="7" height="8" fill="#B45309" rx="1"/><rect x="349.40000000000003" y="68" width="7" height="44" fill="#B45309" rx="1"/><rect x="359.20000000000005" y="105" width="7" height="7" fill="#B45309" rx="1"/><rect x="369.0" y="104" width="7" height="8" fill="#B45309" rx="1"/><rect x="378.8" y="106" width="7" height="6" fill="#B45309" rx="1"/><rect x="388.6" y="105" width="7" height="7" fill="#B45309" rx="1"/><rect x="398.40000000000003" y="104" width="7" height="8" fill="#B45309" rx="1"/><rect x="408.20000000000005" y="106" width="7" height="6" fill="#B45309" rx="1"/><rect x="418.0" y="105" width="7" height="7" fill="#B45309" rx="1"/><rect x="427.8" y="104" width="7" height="8" fill="#B45309" rx="1"/><rect x="437.6" y="106" width="7" height="6" fill="#B45309" rx="1"/><rect x="447.40000000000003" y="105" width="7" height="7" fill="#B45309" rx="1"/><rect x="457.20000000000005" y="68" width="7" height="44" fill="#B45309" rx="1"/><rect x="467.00000000000006" y="106" width="7" height="6" fill="#B45309" rx="1"/><rect x="476.8" y="105" width="7" height="7" fill="#B45309" rx="1"/><rect x="486.6" y="104" width="7" height="8" fill="#B45309" rx="1"/><rect x="496.40000000000003" y="106" width="7" height="6" fill="#B45309" rx="1"/><rect x="506.20000000000005" y="105" width="7" height="7" fill="#B45309" rx="1"/><rect x="516.0" y="104" width="7" height="8" fill="#B45309" rx="1"/><rect x="525.8" y="106" width="7" height="6" fill="#B45309" rx="1"/><rect x="535.6" y="105" width="7" height="7" fill="#B45309" rx="1"/><rect x="545.4000000000001" y="104" width="7" height="8" fill="#B45309" rx="1"/><rect x="555.2" y="106" width="7" height="6" fill="#B45309" rx="1"/><rect x="565.0" y="68" width="7" height="44" fill="#B45309" rx="1"/><rect x="574.8000000000001" y="104" width="7" height="8" fill="#B45309" rx="1"/><rect x="584.6" y="106" width="7" height="6" fill="#B45309" rx="1"/><rect x="594.4000000000001" y="105" width="7" height="7" fill="#B45309" rx="1"/><rect x="604.2" y="104" width="7" height="8" fill="#B45309" rx="1"/><rect x="614.0" y="106" width="7" height="6" fill="#B45309" rx="1"/><rect x="623.8000000000001" y="105" width="7" height="7" fill="#B45309" rx="1"/><rect x="633.6" y="104" width="7" height="8" fill="#B45309" rx="1"/><rect x="643.4000000000001" y="106" width="7" height="6" fill="#B45309" rx="1"/><rect x="653.2" y="105" width="7" height="7" fill="#B45309" rx="1"/><rect x="663.0" y="104" width="7" height="8" fill="#B45309" rx="1"/>
<text x="670" y="72" font-family="'Inter',system-ui,sans-serif" font-size="8.5" fill="#B45309" text-anchor="end" font-weight="700">synchronized waves</text>
<text x="350" y="126" font-family="'Inter',system-ui,sans-serif" font-size="8.5" fill="#52525B" text-anchor="middle" font-weight="400">clients that failed together back off together and return together</text>
<text x="20" y="150" font-family="'JetBrains Mono',ui-monospace,monospace" font-size="9.5" fill="#2E7D46" text-anchor="start" font-weight="700">BACKOFF + JITTER</text>
<rect x="20" y="158" width="660" height="54" rx="7" fill="#FCFCFD" stroke="#E4E4E7" stroke-width="1"/>
<rect x="26.0" y="194" width="7" height="18" fill="#2E7D46" rx="1"/><rect x="35.8" y="187" width="7" height="25" fill="#2E7D46" rx="1"/><rect x="45.6" y="192" width="7" height="20" fill="#2E7D46" rx="1"/><rect x="55.400000000000006" y="186" width="7" height="26" fill="#2E7D46" rx="1"/><rect x="65.2" y="193" width="7" height="19" fill="#2E7D46" rx="1"/><rect x="75.0" y="186" width="7" height="26" fill="#2E7D46" rx="1"/><rect x="84.80000000000001" y="190" width="7" height="22" fill="#2E7D46" rx="1"/><rect x="94.60000000000001" y="187" width="7" height="25" fill="#2E7D46" rx="1"/><rect x="104.4" y="192" width="7" height="20" fill="#2E7D46" rx="1"/><rect x="114.2" y="186" width="7" height="26" fill="#2E7D46" rx="1"/><rect x="124.0" y="192" width="7" height="20" fill="#2E7D46" rx="1"/><rect x="133.8" y="192" width="7" height="20" fill="#2E7D46" rx="1"/><rect x="143.60000000000002" y="189" width="7" height="23" fill="#2E7D46" rx="1"/><rect x="153.4" y="190" width="7" height="22" fill="#2E7D46" rx="1"/><rect x="163.20000000000002" y="186" width="7" height="26" fill="#2E7D46" rx="1"/><rect x="173.0" y="191" width="7" height="21" fill="#2E7D46" rx="1"/><rect x="182.8" y="187" width="7" height="25" fill="#2E7D46" rx="1"/><rect x="192.60000000000002" y="188" width="7" height="24" fill="#2E7D46" rx="1"/><rect x="202.4" y="189" width="7" height="23" fill="#2E7D46" rx="1"/><rect x="212.20000000000002" y="190" width="7" height="22" fill="#2E7D46" rx="1"/><rect x="222.0" y="188" width="7" height="24" fill="#2E7D46" rx="1"/><rect x="231.8" y="190" width="7" height="22" fill="#2E7D46" rx="1"/><rect x="241.60000000000002" y="194" width="7" height="18" fill="#2E7D46" rx="1"/><rect x="251.4" y="187" width="7" height="25" fill="#2E7D46" rx="1"/><rect x="261.20000000000005" y="192" width="7" height="20" fill="#2E7D46" rx="1"/><rect x="271.0" y="186" width="7" height="26" fill="#2E7D46" rx="1"/><rect x="280.8" y="193" width="7" height="19" fill="#2E7D46" rx="1"/><rect x="290.6" y="186" width="7" height="26" fill="#2E7D46" rx="1"/><rect x="300.40000000000003" y="190" width="7" height="22" fill="#2E7D46" rx="1"/><rect x="310.20000000000005" y="187" width="7" height="25" fill="#2E7D46" rx="1"/><rect x="320.0" y="192" width="7" height="20" fill="#2E7D46" rx="1"/><rect x="329.8" y="186" width="7" height="26" fill="#2E7D46" rx="1"/><rect x="339.6" y="192" width="7" height="20" fill="#2E7D46" rx="1"/><rect x="349.40000000000003" y="192" width="7" height="20" fill="#2E7D46" rx="1"/><rect x="359.20000000000005" y="189" width="7" height="23" fill="#2E7D46" rx="1"/><rect x="369.0" y="190" width="7" height="22" fill="#2E7D46" rx="1"/><rect x="378.8" y="186" width="7" height="26" fill="#2E7D46" rx="1"/><rect x="388.6" y="191" width="7" height="21" fill="#2E7D46" rx="1"/><rect x="398.40000000000003" y="187" width="7" height="25" fill="#2E7D46" rx="1"/><rect x="408.20000000000005" y="188" width="7" height="24" fill="#2E7D46" rx="1"/><rect x="418.0" y="189" width="7" height="23" fill="#2E7D46" rx="1"/><rect x="427.8" y="190" width="7" height="22" fill="#2E7D46" rx="1"/><rect x="437.6" y="188" width="7" height="24" fill="#2E7D46" rx="1"/><rect x="447.40000000000003" y="190" width="7" height="22" fill="#2E7D46" rx="1"/><rect x="457.20000000000005" y="194" width="7" height="18" fill="#2E7D46" rx="1"/><rect x="467.00000000000006" y="187" width="7" height="25" fill="#2E7D46" rx="1"/><rect x="476.8" y="192" width="7" height="20" fill="#2E7D46" rx="1"/><rect x="486.6" y="186" width="7" height="26" fill="#2E7D46" rx="1"/><rect x="496.40000000000003" y="193" width="7" height="19" fill="#2E7D46" rx="1"/><rect x="506.20000000000005" y="186" width="7" height="26" fill="#2E7D46" rx="1"/><rect x="516.0" y="190" width="7" height="22" fill="#2E7D46" rx="1"/><rect x="525.8" y="187" width="7" height="25" fill="#2E7D46" rx="1"/><rect x="535.6" y="192" width="7" height="20" fill="#2E7D46" rx="1"/><rect x="545.4000000000001" y="186" width="7" height="26" fill="#2E7D46" rx="1"/><rect x="555.2" y="192" width="7" height="20" fill="#2E7D46" rx="1"/><rect x="565.0" y="192" width="7" height="20" fill="#2E7D46" rx="1"/><rect x="574.8000000000001" y="189" width="7" height="23" fill="#2E7D46" rx="1"/><rect x="584.6" y="190" width="7" height="22" fill="#2E7D46" rx="1"/><rect x="594.4000000000001" y="186" width="7" height="26" fill="#2E7D46" rx="1"/><rect x="604.2" y="191" width="7" height="21" fill="#2E7D46" rx="1"/><rect x="614.0" y="187" width="7" height="25" fill="#2E7D46" rx="1"/><rect x="623.8000000000001" y="188" width="7" height="24" fill="#2E7D46" rx="1"/><rect x="633.6" y="189" width="7" height="23" fill="#2E7D46" rx="1"/><rect x="643.4000000000001" y="190" width="7" height="22" fill="#2E7D46" rx="1"/><rect x="653.2" y="188" width="7" height="24" fill="#2E7D46" rx="1"/><rect x="663.0" y="190" width="7" height="22" fill="#2E7D46" rx="1"/>
<text x="670" y="172" font-family="'Inter',system-ui,sans-serif" font-size="8.5" fill="#2E7D46" text-anchor="end" font-weight="700">steady stream</text>
<text x="350" y="232" font-family="'Inter',system-ui,sans-serif" font-size="10" fill="#52525B" text-anchor="middle" font-weight="700">a small random offset spreads the wave into a roughly steady rate, the server can breathe between retries</text>
</svg>