<svg class="anat anat-v" viewBox="0 0 360 412" role="img" aria-label="Airbnb: key made by the caller, memory on the main database only, retries get the saved response. A read-only copy that runs behind would cause a double charge" xmlns="http://www.w3.org/2000/svg">
  <path class="replay" d="M 72 156 C 22 128, 22 52, 60 36"></path>
  <polygon class="rhead" points="72,36 60,30 60,42"></polygon>
  <rect class="node" x="72" y="10" width="216" height="56" rx="7"></rect>
  <text class="nlabel" x="180" y="43">CALLER</text>
  <circle class="keydot" cx="180" cy="66" r="6.5"></circle>
  <line class="arrow" x1="180" y1="76" x2="180" y2="84"></line>
  <line class="arrow" x1="180" y1="106" x2="180" y2="116"></line>
  <polygon class="ahead" points="180,124 176,116 184,116"></polygon>
  <text class="alabel" x="180" y="97">SAME KEY, EVERY RETRY</text>
  <rect class="node" x="72" y="124" width="216" height="56" rx="7"></rect>
  <text class="nlabel" x="180" y="147">ORPHEUS</text>
  <text class="nsub" x="180" y="166">library inside the service</text>
  <line class="drop" x1="180" y1="180" x2="180" y2="189"></line>
  <line class="drop" x1="180" y1="215" x2="180" y2="224"></line>
  <text class="rlabel" x="180" y="204">RETRY GETS THE SAVED RESPONSE</text>
  <rect class="state" x="56" y="224" width="156" height="30" rx="6"></rect>
  <text class="slabel" x="134" y="243">MAIN DATABASE ONLY</text>
  <rect class="state faded" x="220" y="224" width="124" height="30" rx="6"></rect>
  <text class="slabel faded" x="282" y="243">READ-ONLY COPY</text>
  <line class="arrow" x1="180" y1="254" x2="180" y2="308"></line>
  <polygon class="ahead" points="180,316 176,308 184,308"></polygon>
  <rect class="node" x="72" y="316" width="216" height="56" rx="7"></rect>
  <text class="nlabel" x="180" y="349">BANK</text>
  <line class="bx" x1="24" y1="388" x2="36" y2="400"></line>
  <line class="bx" x1="36" y1="388" x2="24" y2="400"></line>
  <text class="blabel" x="44" y="398">SECONDS BEHIND = DOUBLE CHARGE</text>
</svg>